<svg width="277" height="74" viewBox="0 0 277 74" fill="none" xmlns="http://www.w3.org/2000/svg">
<path d="M118.015 11.85C118.838 11.85 119.467 12.11 119.9 12.63C120.377 13.1067 120.615 13.7567 120.615 14.58V55.595C120.615 56.4183 120.377 57.09 119.9 57.61C119.467 58.0867 118.838 58.325 118.015 58.325C117.192 58.325 116.542 58.0867 116.065 57.61C115.588 57.09 115.35 56.4183 115.35 55.595V37.005H87.92V55.595C87.92 56.4183 87.6817 57.09 87.205 57.61C86.7283 58.0867 86.0783 58.325 85.255 58.325C84.4317 58.325 83.7817 58.0867 83.305 57.61C82.8717 57.09 82.655 56.4183 82.655 55.595V14.58C82.655 13.7567 82.8717 13.1067 83.305 12.63C83.7817 12.11 84.4317 11.85 85.255 11.85C86.0783 11.85 86.7283 12.11 87.205 12.63C87.6817 13.1067 87.92 13.7567 87.92 14.58V32.455H115.35V14.58C115.35 13.7567 115.588 13.1067 116.065 12.63C116.542 12.11 117.192 11.85 118.015 11.85ZM144.068 25.565C151.998 25.565 155.963 29.725 155.963 38.045V55.725C155.963 56.505 155.724 57.1333 155.248 57.61C154.814 58.0867 154.208 58.325 153.428 58.325C152.648 58.325 152.019 58.0867 151.543 57.61C151.066 57.1333 150.828 56.505 150.828 55.725V52.605C150.004 54.4683 148.748 55.92 147.058 56.96C145.368 57.9567 143.418 58.455 141.208 58.455C139.171 58.455 137.286 58.0433 135.553 57.22C133.863 56.3967 132.519 55.2483 131.523 53.775C130.526 52.3017 130.028 50.6767 130.028 48.9C130.028 46.5167 130.634 44.675 131.848 43.375C133.061 42.0317 135.054 41.0783 137.828 40.515C140.601 39.9083 144.458 39.605 149.398 39.605H150.828V37.46C150.828 34.86 150.286 32.9533 149.203 31.74C148.163 30.5267 146.451 29.92 144.068 29.92C141.121 29.92 138.131 30.7217 135.098 32.325C133.928 33.0617 133.104 33.43 132.628 33.43C132.108 33.43 131.674 33.235 131.328 32.845C130.981 32.455 130.808 31.9567 130.808 31.35C130.808 30.7433 130.981 30.2233 131.328 29.79C131.718 29.3133 132.324 28.8367 133.148 28.36C134.664 27.4933 136.376 26.8217 138.283 26.345C140.233 25.825 142.161 25.565 144.068 25.565ZM141.923 54.295C144.523 54.295 146.646 53.4283 148.293 51.695C149.983 49.9183 150.828 47.6433 150.828 44.87V42.985H149.658C145.844 42.985 142.941 43.1583 140.948 43.505C138.954 43.8083 137.524 44.35 136.658 45.13C135.834 45.8667 135.423 46.9717 135.423 48.445C135.423 50.135 136.029 51.5433 137.243 52.67C138.499 53.7533 140.059 54.295 141.923 54.295ZM181.526 25.565C184.299 25.565 186.747 26.2583 188.871 27.645C190.994 29.0317 192.641 30.9817 193.811 33.495C194.981 35.965 195.566 38.8467 195.566 42.14C195.566 45.4333 194.981 48.315 193.811 50.785C192.641 53.2117 190.994 55.0967 188.871 56.44C186.791 57.7833 184.342 58.455 181.526 58.455C179.056 58.455 176.889 57.9133 175.026 56.83C173.206 55.7467 171.819 54.2083 170.866 52.215V67.49C170.866 68.27 170.627 68.8767 170.151 69.31C169.717 69.7867 169.089 70.025 168.266 70.025C167.442 70.025 166.792 69.7867 166.316 69.31C165.839 68.8333 165.601 68.2267 165.601 67.49V28.295C165.601 27.515 165.839 26.8867 166.316 26.41C166.792 25.9333 167.442 25.695 168.266 25.695C169.089 25.695 169.717 25.9333 170.151 26.41C170.627 26.8867 170.866 27.515 170.866 28.295V31.805C171.819 29.8117 173.206 28.2733 175.026 27.19C176.889 26.1067 179.056 25.565 181.526 25.565ZM180.486 54.1C183.562 54.1 185.946 53.06 187.636 50.98C189.326 48.9 190.171 45.9533 190.171 42.14C190.171 38.3267 189.326 35.3583 187.636 33.235C185.946 31.0683 183.562 29.985 180.486 29.985C177.409 29.985 175.026 31.025 173.336 33.105C171.689 35.185 170.866 38.1533 170.866 42.01C170.866 45.8667 171.689 48.8567 173.336 50.98C175.026 53.06 177.409 54.1 180.486 54.1ZM227.483 25.695C228.306 25.695 228.934 25.9333 229.368 26.41C229.844 26.8867 230.083 27.515 230.083 28.295V55.79C230.083 56.5267 229.844 57.1333 229.368 57.61C228.934 58.0867 228.306 58.325 227.483 58.325C226.703 58.325 226.074 58.1083 225.598 57.675C225.164 57.1983 224.948 56.5917 224.948 55.855V52.605C223.951 54.5117 222.543 55.9633 220.723 56.96C218.946 57.9567 216.931 58.455 214.678 58.455C210.908 58.455 208.069 57.415 206.163 55.335C204.256 53.2117 203.303 50.0917 203.303 45.975V28.295C203.303 27.515 203.541 26.8867 204.018 26.41C204.494 25.9333 205.144 25.695 205.968 25.695C206.791 25.695 207.419 25.9333 207.853 26.41C208.329 26.8867 208.568 27.515 208.568 28.295V45.845C208.568 48.6617 209.131 50.7417 210.258 52.085C211.384 53.385 213.161 54.035 215.588 54.035C218.361 54.035 220.593 53.1467 222.283 51.37C223.973 49.55 224.818 47.1667 224.818 44.22V28.295C224.818 27.515 225.056 26.8867 225.533 26.41C226.009 25.9333 226.659 25.695 227.483 25.695ZM250.528 58.455C248.535 58.455 246.628 58.2167 244.808 57.74C243.031 57.2633 241.45 56.5917 240.063 55.725C239.283 55.205 238.72 54.7283 238.373 54.295C238.07 53.8183 237.918 53.255 237.918 52.605C237.918 52.0417 238.07 51.5867 238.373 51.24C238.72 50.85 239.153 50.655 239.673 50.655C240.193 50.655 240.951 50.98 241.948 51.63C243.248 52.41 244.526 53.0383 245.783 53.515C247.083 53.9483 248.686 54.165 250.593 54.165C252.933 54.165 254.753 53.7533 256.053 52.93C257.353 52.1067 258.003 50.915 258.003 49.355C258.003 48.4017 257.765 47.6433 257.288 47.08C256.811 46.4733 255.988 45.9533 254.818 45.52C253.648 45.0433 251.936 44.5667 249.683 44.09C245.87 43.2667 243.14 42.1617 241.493 40.775C239.846 39.3883 239.023 37.5033 239.023 35.12C239.023 33.2567 239.543 31.61 240.583 30.18C241.623 28.75 243.053 27.6233 244.873 26.8C246.736 25.9767 248.838 25.565 251.178 25.565C252.868 25.565 254.493 25.8033 256.053 26.28C257.656 26.7133 259.065 27.3417 260.278 28.165C261.751 29.205 262.488 30.2883 262.488 31.415C262.488 31.9783 262.315 32.455 261.968 32.845C261.621 33.235 261.21 33.43 260.733 33.43C260.213 33.43 259.433 33.0617 258.393 32.325C257.18 31.545 256.031 30.9383 254.948 30.505C253.865 30.0717 252.521 29.855 250.918 29.855C248.881 29.855 247.235 30.31 245.978 31.22C244.765 32.13 244.158 33.3433 244.158 34.86C244.158 35.8133 244.375 36.5933 244.808 37.2C245.285 37.7633 246.043 38.2833 247.083 38.76C248.166 39.1933 249.705 39.6267 251.698 40.06C254.645 40.71 256.92 41.425 258.523 42.205C260.17 42.985 261.34 43.9383 262.033 45.065C262.726 46.1917 263.073 47.6217 263.073 49.355C263.073 52.085 261.925 54.295 259.628 55.985C257.331 57.6317 254.298 58.455 250.528 58.455Z" fill="white"/>
<path d="M119.9 12.63L119.132 13.2702L119.161 13.305L119.193 13.3371L119.9 12.63ZM119.9 57.61L119.163 56.9343L119.16 56.9373L119.9 57.61ZM116.065 57.61L115.328 58.2857L115.343 58.3017L115.358 58.3171L116.065 57.61ZM115.35 37.005H116.35V36.005H115.35V37.005ZM87.92 37.005V36.005H86.92V37.005H87.92ZM87.205 57.61L87.9121 58.3171L87.9275 58.3017L87.9422 58.2857L87.205 57.61ZM83.305 57.61L82.5368 58.2502L82.5658 58.285L82.5979 58.3171L83.305 57.61ZM83.305 12.63L82.5678 11.9543L82.5651 11.9573L83.305 12.63ZM87.205 12.63L86.4678 13.3057L86.4825 13.3217L86.4979 13.3371L87.205 12.63ZM87.92 32.455H86.92V33.455H87.92V32.455ZM115.35 32.455V33.455H116.35V32.455H115.35ZM116.065 12.63L116.772 13.3371L116.787 13.3217L116.802 13.3057L116.065 12.63ZM118.015 12.85C118.612 12.85 118.929 13.0273 119.132 13.2702L120.668 11.9898C120.004 11.1927 119.065 10.85 118.015 10.85V12.85ZM119.193 13.3371C119.442 13.5862 119.615 13.9594 119.615 14.58H121.615C121.615 13.5539 121.311 12.6271 120.607 11.9229L119.193 13.3371ZM119.615 14.58V55.595H121.615V14.58H119.615ZM119.615 55.595C119.615 56.2127 119.443 56.6291 119.163 56.9343L120.637 58.2857C121.311 57.5509 121.615 56.624 121.615 55.595H119.615ZM119.16 56.9373C118.966 57.1509 118.64 57.325 118.015 57.325V59.325C119.037 59.325 119.967 59.0224 120.64 58.2827L119.16 56.9373ZM118.015 57.325C117.394 57.325 117.021 57.152 116.772 56.9029L115.358 58.3171C116.062 59.0213 116.989 59.325 118.015 59.325V57.325ZM116.802 56.9343C116.522 56.6291 116.35 56.2127 116.35 55.595H114.35C114.35 56.624 114.654 57.5509 115.328 58.2857L116.802 56.9343ZM116.35 55.595V37.005H114.35V55.595H116.35ZM115.35 36.005H87.92V38.005H115.35V36.005ZM86.92 37.005V55.595H88.92V37.005H86.92ZM86.92 55.595C86.92 56.2127 86.7476 56.6291 86.4678 56.9343L87.9422 58.2857C88.6158 57.5509 88.92 56.624 88.92 55.595H86.92ZM86.4979 56.9029C86.2488 57.152 85.8756 57.325 85.255 57.325V59.325C86.2811 59.325 87.2079 59.0213 87.9121 58.3171L86.4979 56.9029ZM85.255 57.325C84.6344 57.325 84.2612 57.152 84.0121 56.9029L82.5979 58.3171C83.3021 59.0213 84.2289 59.325 85.255 59.325V57.325ZM84.0732 56.9698C83.8201 56.6661 83.655 56.2369 83.655 55.595H81.655C81.655 56.5997 81.9232 57.5139 82.5368 58.2502L84.0732 56.9698ZM83.655 55.595V14.58H81.655V55.595H83.655ZM83.655 14.58C83.655 13.9339 83.8215 13.5484 84.0449 13.3027L82.5651 11.9573C81.9218 12.6649 81.655 13.5794 81.655 14.58H83.655ZM84.0422 13.3057C84.2973 13.0274 84.6607 12.85 85.255 12.85V10.85C84.2027 10.85 83.266 11.1926 82.5678 11.9543L84.0422 13.3057ZM85.255 12.85C85.8493 12.85 86.2127 13.0274 86.4678 13.3057L87.9422 11.9543C87.244 11.1926 86.3073 10.85 85.255 10.85V12.85ZM86.4979 13.3371C86.747 13.5862 86.92 13.9594 86.92 14.58H88.92C88.92 13.5539 88.6163 12.6271 87.9121 11.9229L86.4979 13.3371ZM86.92 14.58V32.455H88.92V14.58H86.92ZM87.92 33.455H115.35V31.455H87.92V33.455ZM116.35 32.455V14.58H114.35V32.455H116.35ZM116.35 14.58C116.35 13.9594 116.523 13.5862 116.772 13.3371L115.358 11.9229C114.654 12.6271 114.35 13.5539 114.35 14.58H116.35ZM116.802 13.3057C117.057 13.0274 117.421 12.85 118.015 12.85V10.85C116.963 10.85 116.026 11.1926 115.328 11.9543L116.802 13.3057ZM155.248 57.61L154.541 56.9029L154.524 56.9197L154.508 56.9373L155.248 57.61ZM151.543 57.61L152.25 56.9029L152.25 56.9029L151.543 57.61ZM150.828 52.605H151.828L149.913 52.2008L150.828 52.605ZM147.058 56.96L147.566 57.8214L147.574 57.8166L147.582 57.8117L147.058 56.96ZM135.553 57.22L135.115 58.119L135.124 58.1233L135.553 57.22ZM131.523 53.775L130.695 54.3353L130.695 54.3353L131.523 53.775ZM131.848 43.375L132.579 44.0573L132.584 44.0513L132.59 44.0453L131.848 43.375ZM137.828 40.515L138.027 41.495L138.034 41.4935L138.042 41.4919L137.828 40.515ZM150.828 39.605V40.605H151.828V39.605H150.828ZM149.203 31.74L148.444 32.3908L148.45 32.3985L148.457 32.406L149.203 31.74ZM135.098 32.325L134.631 31.4409L134.597 31.4586L134.565 31.4788L135.098 32.325ZM131.328 29.79L130.554 29.1567L130.547 29.1653L131.328 29.79ZM133.148 28.36L132.652 27.4917L132.647 27.4946L133.148 28.36ZM138.283 26.345L138.525 27.3151L138.533 27.3132L138.54 27.3112L138.283 26.345ZM148.293 51.695L147.568 51.0058L147.568 51.0063L148.293 51.695ZM150.828 42.985H151.828V41.985H150.828V42.985ZM140.948 43.505L141.098 44.4936L141.109 44.492L141.119 44.4902L140.948 43.505ZM136.658 45.13L137.325 45.8752L137.327 45.8733L136.658 45.13ZM137.243 52.67L136.562 53.4028L136.576 53.4154L136.59 53.4274L137.243 52.67ZM144.068 26.565C147.866 26.565 150.534 27.5589 152.265 29.3749C154.005 31.2 154.963 34.0275 154.963 38.045H156.963C156.963 33.7425 155.938 30.33 153.713 27.9951C151.479 25.6511 148.2 24.565 144.068 24.565V26.565ZM154.963 38.045V55.725H156.963V38.045H154.963ZM154.963 55.725C154.963 56.2849 154.8 56.6434 154.541 56.9029L155.955 58.3171C156.649 57.6233 156.963 56.7251 156.963 55.725H154.963ZM154.508 56.9373C154.303 57.1622 153.99 57.325 153.428 57.325V59.325C154.425 59.325 155.326 59.0111 155.988 58.2827L154.508 56.9373ZM153.428 57.325C152.868 57.325 152.509 57.1624 152.25 56.9029L150.836 58.3171C151.53 59.011 152.428 59.325 153.428 59.325V57.325ZM152.25 56.9029C151.99 56.6434 151.828 56.2849 151.828 55.725H149.828C149.828 56.7251 150.142 57.6233 150.836 58.3171L152.25 56.9029ZM151.828 55.725V52.605H149.828V55.725H151.828ZM149.913 52.2008C149.169 53.8841 148.046 55.1775 146.534 56.1083L147.582 57.8117C149.449 56.6625 150.84 55.0525 151.743 53.0092L149.913 52.2008ZM146.55 56.0986C145.032 56.9935 143.262 57.455 141.208 57.455V59.455C143.573 59.455 145.703 58.9198 147.566 57.8214L146.55 56.0986ZM141.208 57.455C139.31 57.455 137.573 57.0725 135.982 56.3167L135.124 58.1233C136.999 59.0142 139.032 59.455 141.208 59.455V57.455ZM135.991 56.321C134.449 55.5699 133.244 54.5345 132.351 53.2147L130.695 54.3353C131.795 55.9621 133.277 57.2234 135.115 58.119L135.991 56.321ZM132.351 53.2147C131.466 51.9066 131.028 50.4767 131.028 48.9H129.028C129.028 50.8766 129.586 52.6968 130.695 54.3353L132.351 53.2147ZM131.028 48.9C131.028 46.682 131.59 45.1166 132.579 44.0573L131.117 42.6927C129.679 44.2334 129.028 46.3513 129.028 48.9H131.028ZM132.59 44.0453C133.6 42.9275 135.353 42.0381 138.027 41.495L137.629 39.535C134.756 40.1185 132.523 41.1359 131.106 42.7047L132.59 44.0453ZM138.042 41.4919C140.712 40.9078 144.485 40.605 149.398 40.605V38.605C144.43 38.605 140.491 38.9088 137.614 39.5381L138.042 41.4919ZM149.398 40.605H150.828V38.605H149.398V40.605ZM151.828 39.605V37.46H149.828V39.605H151.828ZM151.828 37.46C151.828 34.7536 151.269 32.553 149.949 31.074L148.457 32.406C149.303 33.3536 149.828 34.9664 149.828 37.46H151.828ZM149.962 31.0892C148.654 29.5635 146.597 28.92 144.068 28.92V30.92C146.305 30.92 147.671 31.4899 148.444 32.3908L149.962 31.0892ZM144.068 28.92C140.933 28.92 137.784 29.774 134.631 31.4409L135.565 33.2091C138.478 31.6693 141.309 30.92 144.068 30.92V28.92ZM134.565 31.4788C134.001 31.8337 133.547 32.0833 133.194 32.2409C133.019 32.3194 132.881 32.3694 132.778 32.3988C132.67 32.4293 132.625 32.43 132.628 32.43V34.43C133.083 34.43 133.565 34.266 134.011 34.0666C134.482 33.8559 135.024 33.553 135.631 33.1712L134.565 31.4788ZM132.628 32.43C132.395 32.43 132.233 32.358 132.075 32.1806L130.58 33.5094C131.116 34.112 131.821 34.43 132.628 34.43V32.43ZM132.075 32.1806C131.917 32.003 131.808 31.7541 131.808 31.35H129.808C129.808 32.1593 130.045 32.907 130.58 33.5094L132.075 32.1806ZM131.808 31.35C131.808 30.9478 131.917 30.6539 132.109 30.4147L130.547 29.1653C130.045 29.7928 129.808 30.5388 129.808 31.35H131.808ZM132.102 30.4232C132.386 30.0763 132.879 29.671 133.649 29.2254L132.647 27.4946C131.77 28.0023 131.05 28.5504 130.554 29.1568L132.102 30.4232ZM133.644 29.2282C135.072 28.4123 136.697 27.7723 138.525 27.3151L138.04 25.3749C136.056 25.871 134.257 26.5744 132.652 27.4918L133.644 29.2282ZM138.54 27.3112C140.411 26.8123 142.253 26.565 144.068 26.565V24.565C142.069 24.565 140.054 24.8377 138.025 25.3788L138.54 27.3112ZM141.923 55.295C144.77 55.295 147.165 54.3343 149.018 52.3837L147.568 51.0063C146.128 52.5223 144.275 53.295 141.923 53.295V55.295ZM149.017 52.3842C150.908 50.3969 151.828 47.8635 151.828 44.87H149.828C149.828 47.4231 149.058 49.4398 147.568 51.0058L149.017 52.3842ZM151.828 44.87V42.985H149.828V44.87H151.828ZM150.828 41.985H149.658V43.985H150.828V41.985ZM149.658 41.985C145.828 41.985 142.856 42.1581 140.776 42.5198L141.119 44.4902C143.026 44.1585 145.861 43.985 149.658 43.985V41.985ZM140.797 42.5164C138.735 42.8302 137.072 43.4117 135.989 44.3867L137.327 45.8733C137.977 45.2883 139.174 44.7865 141.098 44.4936L140.797 42.5164ZM135.991 44.3848C134.891 45.3688 134.423 46.787 134.423 48.445H136.423C136.423 47.1564 136.778 46.3645 137.325 45.8752L135.991 44.3848ZM134.423 48.445C134.423 50.4065 135.141 52.0825 136.562 53.4028L137.923 51.9372C136.918 51.0041 136.423 49.8635 136.423 48.445H134.423ZM136.59 53.4274C138.051 54.6867 139.851 55.295 141.923 55.295V53.295C140.268 53.295 138.948 52.82 137.896 51.9126L136.59 53.4274ZM188.871 27.645L188.324 28.4823L188.324 28.4823L188.871 27.645ZM193.811 33.495L192.904 33.917L192.907 33.9231L193.811 33.495ZM193.811 50.785L194.711 51.2193L194.714 51.2131L193.811 50.785ZM188.871 56.44L188.336 55.5949L188.328 55.6L188.871 56.44ZM175.026 56.83L174.514 57.6893L174.523 57.6945L175.026 56.83ZM170.866 52.215L171.768 51.7835L169.866 52.215H170.866ZM170.151 69.31L169.478 68.5701L169.443 68.6021L169.411 68.6373L170.151 69.31ZM166.316 69.31L165.608 70.0171L165.608 70.0171L166.316 69.31ZM166.316 26.41L165.608 25.7029L165.608 25.7029L166.316 26.41ZM170.151 26.41L169.411 27.0827L169.427 27.1003L169.443 27.1171L170.151 26.41ZM170.866 31.805H169.866L171.768 32.2365L170.866 31.805ZM175.026 27.19L174.523 26.3254L174.514 26.3307L175.026 27.19ZM187.636 50.98L188.412 51.6106L188.412 51.6106L187.636 50.98ZM187.636 33.235L186.847 33.8501L186.853 33.8577L187.636 33.235ZM173.336 33.105L172.559 32.4744L172.552 32.4843L173.336 33.105ZM173.336 50.98L172.545 51.5928L172.552 51.6018L172.559 51.6106L173.336 50.98ZM181.526 26.565C184.124 26.565 186.378 27.2117 188.324 28.4823L189.417 26.8077C187.116 25.305 184.474 24.565 181.526 24.565V26.565ZM188.324 28.4823C190.276 29.7574 191.805 31.5566 192.904 33.917L194.717 33.073C193.476 30.4067 191.711 28.3059 189.417 26.8077L188.324 28.4823ZM192.907 33.9231C194.002 36.2347 194.566 38.9648 194.566 42.14H196.566C196.566 38.7285 195.959 35.6953 194.714 33.0669L192.907 33.9231ZM194.566 42.14C194.566 45.3152 194.002 48.0453 192.907 50.3569L194.714 51.2131C195.959 48.5847 196.566 45.5515 196.566 42.14H194.566ZM192.91 50.3507C191.815 52.6216 190.29 54.3588 188.336 55.5949L189.405 57.2851C191.698 55.8345 193.466 53.8018 194.711 51.2193L192.91 50.3507ZM188.328 55.6C186.431 56.825 184.177 57.455 181.526 57.455V59.455C184.508 59.455 187.15 58.7416 189.413 57.28L188.328 55.6ZM181.526 57.455C179.206 57.455 177.218 56.9478 175.528 55.9655L174.523 57.6945C176.56 58.8789 178.905 59.455 181.526 59.455V57.455ZM175.537 55.9707C173.894 54.9928 172.64 53.607 171.768 51.7835L169.963 52.6465C170.998 54.8097 172.517 56.5005 174.514 57.6893L175.537 55.9707ZM169.866 52.215V67.49H171.866V52.215H169.866ZM169.866 67.49C169.866 68.0526 169.703 68.3656 169.478 68.5701L170.823 70.0499C171.552 69.3877 171.866 68.4874 171.866 67.49H169.866ZM169.411 68.6373C169.216 68.8509 168.891 69.025 168.266 69.025V71.025C169.287 71.025 170.218 70.7224 170.891 69.9827L169.411 68.6373ZM168.266 69.025C167.645 69.025 167.272 68.852 167.023 68.6029L165.608 70.0171C166.313 70.7213 167.24 71.025 168.266 71.025V69.025ZM167.023 68.6029C166.752 68.3321 166.601 67.9885 166.601 67.49H164.601C164.601 68.4648 164.926 69.3346 165.608 70.0171L167.023 68.6029ZM166.601 67.49V28.295H164.601V67.49H166.601ZM166.601 28.295C166.601 27.7351 166.763 27.3766 167.023 27.1171L165.608 25.7029C164.915 26.3967 164.601 27.2949 164.601 28.295H166.601ZM167.023 27.1171C167.272 26.868 167.645 26.695 168.266 26.695V24.695C167.24 24.695 166.313 24.9987 165.608 25.7029L167.023 27.1171ZM168.266 26.695C168.891 26.695 169.216 26.8691 169.411 27.0827L170.891 25.7373C170.218 24.9976 169.287 24.695 168.266 24.695V26.695ZM169.443 27.1171C169.703 27.3766 169.866 27.7351 169.866 28.295H171.866C171.866 27.2949 171.552 26.3967 170.858 25.7029L169.443 27.1171ZM169.866 28.295V31.805H171.866V28.295H169.866ZM171.768 32.2365C172.64 30.413 173.894 29.0272 175.537 28.0493L174.514 26.3307C172.517 27.5195 170.998 29.2103 169.963 31.3735L171.768 32.2365ZM175.528 28.0545C177.218 27.0722 179.206 26.565 181.526 26.565V24.565C178.905 24.565 176.56 25.1411 174.523 26.3255L175.528 28.0545ZM180.486 55.1C183.813 55.1 186.502 53.9606 188.412 51.6106L186.859 50.3494C185.389 52.1594 183.311 53.1 180.486 53.1V55.1ZM188.412 51.6106C190.297 49.2903 191.171 46.0879 191.171 42.14H189.171C189.171 45.8188 188.354 48.5097 186.859 50.3494L188.412 51.6106ZM191.171 42.14C191.171 38.1904 190.296 34.972 188.418 32.6123L186.853 33.8577C188.355 35.7446 189.171 38.4629 189.171 42.14H191.171ZM188.424 32.62C186.52 30.179 183.828 28.985 180.486 28.985V30.985C183.296 30.985 185.371 31.9576 186.847 33.85L188.424 32.62ZM180.486 28.985C177.158 28.985 174.469 30.1244 172.559 32.4744L174.112 33.7356C175.582 31.9256 177.66 30.985 180.486 30.985V28.985ZM172.552 32.4843C170.714 34.8055 169.866 38.027 169.866 42.01H171.866C171.866 38.2796 172.664 35.5645 174.12 33.7257L172.552 32.4843ZM169.866 42.01C169.866 45.9948 170.715 49.2322 172.545 51.5928L174.126 50.3672C172.663 48.4811 171.866 45.7385 171.866 42.01H169.866ZM172.559 51.6106C174.469 53.9606 177.158 55.1 180.486 55.1V53.1C177.66 53.1 175.582 52.1594 174.112 50.3494L172.559 51.6106ZM229.368 26.41L228.628 27.0827L228.644 27.1003L228.661 27.1171L229.368 26.41ZM229.368 57.61L228.661 56.9029L228.644 56.9197L228.628 56.9373L229.368 57.61ZM225.598 57.675L224.858 58.3477L224.89 58.3829L224.925 58.4149L225.598 57.675ZM224.948 52.605H225.948L224.061 52.1417L224.948 52.605ZM220.723 56.96L220.242 56.0829L220.233 56.0879L220.723 56.96ZM206.163 55.335L205.419 56.0032L205.425 56.0107L206.163 55.335ZM204.018 26.41L203.311 25.7029L203.311 25.7029L204.018 26.41ZM207.853 26.41L207.113 27.0827L207.129 27.1003L207.146 27.1171L207.853 26.41ZM210.258 52.085L209.491 52.7276L209.497 52.7338L209.502 52.7399L210.258 52.085ZM222.283 51.37L223.007 52.0593L223.015 52.0505L222.283 51.37ZM225.533 26.41L224.826 25.7029L224.826 25.7029L225.533 26.41ZM227.483 26.695C228.108 26.695 228.434 26.8691 228.628 27.0827L230.108 25.7373C229.435 24.9976 228.504 24.695 227.483 24.695V26.695ZM228.661 27.1171C228.92 27.3766 229.083 27.7351 229.083 28.295H231.083C231.083 27.2949 230.769 26.3967 230.075 25.7029L228.661 27.1171ZM229.083 28.295V55.79H231.083V28.295H229.083ZM229.083 55.79C229.083 56.2885 228.931 56.6321 228.661 56.9029L230.075 58.3171C230.757 57.6346 231.083 56.7648 231.083 55.79H229.083ZM228.628 56.9373C228.434 57.1509 228.108 57.325 227.483 57.325V59.325C228.504 59.325 229.435 59.0224 230.108 58.2827L228.628 56.9373ZM227.483 57.325C226.896 57.325 226.526 57.1673 226.27 56.9351L224.925 58.4149C225.623 59.0493 226.509 59.325 227.483 59.325V57.325ZM226.338 57.0023C226.096 56.7362 225.948 56.3811 225.948 55.855H223.948C223.948 56.8022 224.233 57.6605 224.858 58.3477L226.338 57.0023ZM225.948 55.855V52.605H223.948V55.855H225.948ZM224.061 52.1417C223.153 53.8802 221.882 55.1847 220.242 56.0829L221.203 57.8371C223.203 56.742 224.749 55.1431 225.834 53.0683L224.061 52.1417ZM220.233 56.0879C218.622 56.992 216.778 57.455 214.678 57.455V59.455C217.084 59.455 219.27 58.9213 221.212 57.8321L220.233 56.0879ZM214.678 57.455C211.089 57.455 208.559 56.4697 206.9 54.6593L205.425 56.0107C207.579 58.3603 210.726 59.455 214.678 59.455V57.455ZM206.907 54.6669C205.225 52.794 204.303 49.9528 204.303 45.975H202.303C202.303 50.2305 203.287 53.6294 205.419 56.0031L206.907 54.6669ZM204.303 45.975V28.295H202.303V45.975H204.303ZM204.303 28.295C204.303 27.7351 204.465 27.3766 204.725 27.1171L203.311 25.7029C202.617 26.3967 202.303 27.2949 202.303 28.295H204.303ZM204.725 27.1171C204.974 26.868 205.347 26.695 205.968 26.695V24.695C204.942 24.695 204.015 24.9987 203.311 25.7029L204.725 27.1171ZM205.968 26.695C206.593 26.695 206.919 26.8691 207.113 27.0827L208.593 25.7373C207.92 24.9976 206.989 24.695 205.968 24.695V26.695ZM207.146 27.1171C207.405 27.3766 207.568 27.7351 207.568 28.295H209.568C209.568 27.2949 209.254 26.3967 208.56 25.7029L207.146 27.1171ZM207.568 28.295V45.845H209.568V28.295H207.568ZM207.568 45.845C207.568 48.7631 208.146 51.1231 209.491 52.7276L211.024 51.4424C210.116 50.3602 209.568 48.5602 209.568 45.845H207.568ZM209.502 52.7399C210.887 54.3377 212.994 55.035 215.588 55.035V53.035C213.328 53.035 211.882 52.4323 211.013 51.4301L209.502 52.7399ZM215.588 55.035C218.595 55.035 221.103 54.0612 223.007 52.0592L221.558 50.6808C220.082 52.2321 218.126 53.035 215.588 53.035V55.035ZM223.015 52.0505C224.908 50.0119 225.818 47.3691 225.818 44.22H223.818C223.818 46.9642 223.037 49.0881 221.55 50.6895L223.015 52.0505ZM225.818 44.22V28.295H223.818V44.22H225.818ZM225.818 28.295C225.818 27.7351 225.98 27.3766 226.24 27.1171L224.826 25.7029C224.132 26.3967 223.818 27.2949 223.818 28.295H225.818ZM226.24 27.1171C226.489 26.868 226.862 26.695 227.483 26.695V24.695C226.457 24.695 225.53 24.9987 224.826 25.7029L226.24 27.1171ZM244.808 57.74L244.549 58.7059L244.555 58.7074L244.808 57.74ZM240.063 55.725L239.508 56.5571L239.521 56.5652L239.533 56.573L240.063 55.725ZM238.373 54.295L237.53 54.8319L237.559 54.8775L237.592 54.9197L238.373 54.295ZM238.373 51.24L237.626 50.5756L237.621 50.5815L238.373 51.24ZM241.948 51.63L241.402 52.4676L241.418 52.4778L241.434 52.4875L241.948 51.63ZM245.783 53.515L245.429 54.45L245.448 54.4572L245.467 54.4637L245.783 53.515ZM256.053 52.93L256.588 53.7748L256.588 53.7748L256.053 52.93ZM257.288 47.08L256.502 47.6978L256.513 47.7121L256.525 47.7259L257.288 47.08ZM254.818 45.52L254.441 46.4461L254.456 46.4522L254.471 46.4577L254.818 45.52ZM249.683 44.09L249.472 45.0675L249.476 45.0683L249.683 44.09ZM241.493 40.775L240.849 41.5399L240.849 41.5399L241.493 40.775ZM240.583 30.18L239.774 29.5918L239.774 29.5918L240.583 30.18ZM244.873 26.8L244.469 25.8853L244.461 25.8889L244.873 26.8ZM256.053 26.28L255.761 27.2363L255.777 27.2411L255.792 27.2454L256.053 26.28ZM260.278 28.165L260.855 27.348L260.847 27.3427L260.84 27.3375L260.278 28.165ZM261.968 32.845L262.716 33.5094L262.716 33.5094L261.968 32.845ZM258.393 32.325L258.971 31.509L258.953 31.496L258.934 31.4838L258.393 32.325ZM254.948 30.505L254.577 31.4335L254.577 31.4335L254.948 30.505ZM245.978 31.22L245.392 30.4101L245.385 30.415L245.378 30.42L245.978 31.22ZM244.808 37.2L243.994 37.7812L244.018 37.8146L244.045 37.8459L244.808 37.2ZM247.083 38.76L246.667 39.6691L246.689 39.6793L246.712 39.6885L247.083 38.76ZM251.698 40.06L251.914 39.0835L251.911 39.0828L251.698 40.06ZM258.523 42.205L258.086 43.1043L258.095 43.1087L258.523 42.205ZM262.033 45.065L262.885 44.5409L262.885 44.5409L262.033 45.065ZM259.628 55.985L260.211 56.7978L260.221 56.7904L259.628 55.985ZM250.528 57.455C248.615 57.455 246.794 57.2264 245.062 56.7726L244.555 58.7074C246.462 59.207 248.454 59.455 250.528 59.455V57.455ZM245.067 56.7742C243.374 56.32 241.886 55.6851 240.593 54.877L239.533 56.573C241.014 57.4982 242.689 58.2067 244.549 58.7058L245.067 56.7742ZM240.618 54.8929C239.873 54.3964 239.407 53.9868 239.154 53.6703L237.592 54.9197C238.032 55.4699 238.693 56.0136 239.508 56.5571L240.618 54.8929ZM239.217 53.7581C239.03 53.4649 238.918 53.0941 238.918 52.605H236.918C236.918 53.4159 237.109 54.1717 237.53 54.8319L239.217 53.7581ZM238.918 52.605C238.918 52.2276 239.015 52.0245 239.126 51.8985L237.621 50.5815C237.124 51.1488 236.918 51.8558 236.918 52.605H238.918ZM239.121 51.9044C239.278 51.727 239.44 51.655 239.673 51.655V49.655C238.866 49.655 238.161 49.973 237.626 50.5756L239.121 51.9044ZM239.673 51.655C239.742 51.655 239.919 51.681 240.238 51.8179C240.547 51.9501 240.933 52.1616 241.402 52.4676L242.494 50.7924C241.967 50.4484 241.476 50.1724 241.026 49.9796C240.587 49.7915 240.125 49.655 239.673 49.655V51.655ZM241.434 52.4875C242.778 53.2942 244.11 53.9498 245.429 54.45L246.138 52.58C244.943 52.1268 243.718 51.5258 242.463 50.7725L241.434 52.4875ZM245.467 54.4637C246.9 54.9414 248.618 55.165 250.593 55.165V53.165C248.755 53.165 247.266 52.9552 246.099 52.5663L245.467 54.4637ZM250.593 55.165C253.031 55.165 255.065 54.7394 256.588 53.7748L255.518 52.0852C254.441 52.7673 252.835 53.165 250.593 53.165V55.165ZM256.588 53.7748C258.183 52.7651 259.003 51.2519 259.003 49.355H257.003C257.003 50.5781 256.524 51.4482 255.518 52.0852L256.588 53.7748ZM259.003 49.355C259.003 48.2355 258.721 47.2252 258.052 46.4341L256.525 47.7259C256.809 48.0614 257.003 48.5678 257.003 49.355H259.003ZM258.074 46.4622C257.434 45.6466 256.412 45.044 255.165 44.5823L254.471 46.4577C255.564 46.8627 256.189 47.3001 256.502 47.6978L258.074 46.4622ZM255.195 44.5939C253.943 44.0835 252.163 43.5924 249.89 43.1116L249.476 45.0683C251.71 45.541 253.354 46.0031 254.441 46.4461L255.195 44.5939ZM249.894 43.1125C246.13 42.2999 243.595 41.2374 242.137 40.0101L240.849 41.5399C242.685 43.0859 245.609 44.2335 249.472 45.0675L249.894 43.1125ZM242.137 40.0101C240.742 38.8353 240.023 37.244 240.023 35.12H238.023C238.023 37.7627 238.951 39.9414 240.849 41.5399L242.137 40.0101ZM240.023 35.12C240.023 33.4559 240.483 32.0177 241.392 30.7682L239.774 29.5918C238.603 31.2023 238.023 33.0574 238.023 35.12H240.023ZM241.392 30.7682C242.317 29.4958 243.602 28.4724 245.285 27.7111L244.461 25.8889C242.504 26.7742 240.929 28.0042 239.774 29.5918L241.392 30.7682ZM245.277 27.7147C246.996 26.9554 248.957 26.565 251.178 26.565V24.565C248.72 24.565 246.477 24.998 244.469 25.8853L245.277 27.7147ZM251.178 26.565C252.773 26.565 254.299 26.7897 255.761 27.2363L256.345 25.3236C254.687 24.817 252.964 24.565 251.178 24.565V26.565ZM255.792 27.2454C257.302 27.6535 258.606 28.2391 259.717 28.9925L260.84 27.3375C259.523 26.4442 258.011 25.7731 256.314 25.3146L255.792 27.2454ZM259.701 28.982C261.072 29.9493 261.488 30.7712 261.488 31.415H263.488C263.488 29.8055 262.431 28.4607 260.855 27.348L259.701 28.982ZM261.488 31.415C261.488 31.7546 261.391 31.9889 261.221 32.1806L262.716 33.5094C263.238 32.9211 263.488 32.2021 263.488 31.415H261.488ZM261.221 32.1806C261.044 32.3798 260.895 32.43 260.733 32.43V34.43C261.524 34.43 262.199 34.0902 262.716 33.5094L261.221 32.1806ZM260.733 32.43C260.687 32.43 260.519 32.407 260.185 32.2495C259.866 32.099 259.464 31.8579 258.971 31.509L257.815 33.141C258.363 33.5288 258.87 33.8402 259.331 34.058C259.778 34.2688 260.259 34.43 260.733 34.43V32.43ZM258.934 31.4838C257.679 30.6771 256.474 30.0383 255.32 29.5765L254.577 31.4335C255.589 31.8384 256.681 32.4129 257.852 33.1662L258.934 31.4838ZM255.32 29.5765C254.083 29.0818 252.604 28.855 250.918 28.855V30.855C252.439 30.855 253.647 31.0615 254.577 31.4335L255.32 29.5765ZM250.918 28.855C248.736 28.855 246.865 29.343 245.392 30.4101L246.565 32.0299C247.604 31.277 249.027 30.855 250.918 30.855V28.855ZM245.378 30.42C243.913 31.5189 243.158 33.0286 243.158 34.86H245.158C245.158 33.6581 245.617 32.7411 246.578 32.02L245.378 30.42ZM243.158 34.86C243.158 35.9636 243.41 36.9631 243.994 37.7812L245.622 36.6188C245.34 36.2236 245.158 35.6631 245.158 34.86H243.158ZM244.045 37.8459C244.654 38.5661 245.559 39.1615 246.667 39.6691L247.5 37.8509C246.527 37.4051 245.916 36.9606 245.572 36.5541L244.045 37.8459ZM246.712 39.6885C247.871 40.1522 249.472 40.5994 251.486 41.0372L251.911 39.0828C249.938 38.6539 248.462 38.2345 247.455 37.8315L246.712 39.6885ZM251.483 41.0365C254.398 41.6795 256.585 42.3742 258.086 43.1042L258.961 41.3058C257.255 40.4758 254.892 39.7405 251.914 39.0835L251.483 41.0365ZM258.095 43.1087C259.631 43.8361 260.621 44.6786 261.182 45.5891L262.885 44.5409C262.058 43.1981 260.709 42.1339 258.951 41.3013L258.095 43.1087ZM261.182 45.5891C261.752 46.5163 262.073 47.7506 262.073 49.355H264.073C264.073 47.4928 263.701 45.867 262.885 44.5409L261.182 45.5891ZM262.073 49.355C262.073 51.7508 261.089 53.6682 259.035 55.1796L260.221 56.7904C262.76 54.9218 264.073 52.4192 264.073 49.355H262.073ZM259.045 55.1723C256.967 56.6623 254.158 57.455 250.528 57.455V59.455C254.438 59.455 257.696 58.601 260.211 56.7977L259.045 55.1723Z" fill="white"/>
<path d="M63.9739 18.7786V44.9078C63.9739 55.2784 55.5339 63.6863 45.1237 63.6863H43.217L33.4805 73.3795C33.0992 73.7594 32.5717 74 31.987 74C31.4467 74 30.9574 73.8037 30.5824 73.4745L30.4172 73.3099L30.4108 73.3036L20.7569 63.6863H18.8439C8.44003 63.6863 0 55.2784 0 44.9078V18.7786C0 8.40794 8.44003 0 18.8503 0H45.1237C55.5339 0 63.9739 8.40794 63.9739 18.7786Z" fill="#FFD666"/>
<path d="M14.895 36.197C13.0392 36.197 11.9814 38.3036 13.0582 39.8248C17.2449 45.7501 24.1677 49.6133 31.99 49.6133C39.8123 49.6133 46.7289 45.7437 50.9155 39.8248C51.9923 38.3036 50.9345 36.197 49.0787 36.197H14.895Z" fill="white"/>
<path d="M25.764 27.2298H14.5658V21.6036C14.5658 18.4977 17.074 15.9774 20.1649 15.9774C23.2558 15.9774 25.764 18.4977 25.764 21.6036V27.2298Z" fill="white"/>
<path d="M49.4148 27.2298H38.2166V21.6036C38.2166 18.4977 40.7248 15.9774 43.8157 15.9774C46.9066 15.9774 49.4148 18.4977 49.4148 21.6036V27.2298Z" fill="white"/>
</svg>
